<?xml version="1.0" encoding="UTF-8"?>
<svg width="64" height="64" viewBox="0 0 64 64" fill="none" xmlns="http://www.w3.org/2000/svg">
  <path d="M48 28C47.398 28 46.813 28.043 46.24 28.12C44.36 22.4 39.04 18 32.8 18C25.2 18 19 24.2 19 31.8C19 32.4 19.04 33 19.12 33.6C19.04 33.6 19 33.6 19 33.6C14.6 33.6 11 37.2 11 41.6C11 46 14.6 49.6 19 49.6H48C52.4 49.6 56 46 56 41.6C56 37.2 52.4 33.6 48 33.6C48 33.6 47.96 33.6 47.88 33.6C47.96 33 48 32.4 48 31.8C48 30.2 47.6 28.6 48 28ZM48 45.6H19C16.8 45.6 15 43.8 15 41.6C15 39.4 16.8 37.6 19 37.6H20.2C21.8 31.8 26.8 27.6 32.8 27.6C38.8 27.6 43.8 31.8 45.4 37.6H48C50.2 37.6 52 39.4 52 41.6C52 43.8 50.2 45.6 48 45.6Z" fill="#00FFE7"/>
</svg> 