<?xml version="1.0" encoding="UTF-8"?>
<svg width="200" height="50" viewBox="0 0 200 50" fill="none" xmlns="http://www.w3.org/2000/svg">
  <!-- Logo Symbol -->
  <path d="M25 10C16.716 10 10 16.716 10 25C10 33.284 16.716 40 25 40C33.284 40 40 33.284 40 25C40 16.716 33.284 10 25 10ZM25 36C18.373 36 14 31.627 14 25C14 18.373 18.373 14 25 14C31.627 14 36 18.373 36 25C36 31.627 31.627 36 25 36Z" fill="#00FFE7"/>
  <path d="M25 18C21.134 18 18 21.134 18 25C18 28.866 21.134 32 25 32C28.866 32 32 28.866 32 25C32 21.134 28.866 18 25 18ZM25 28C22.791 28 21 26.209 21 24C21 21.791 22.791 20 25 20C27.209 20 29 21.791 29 24C29 26.209 27.209 28 25 28Z" fill="#00FFE7"/>
  
  <!-- Text -->
  <path d="M55 15H60V35H55V15Z" fill="#FFFFFF"/>
  <path d="M65 15H70V35H65V15Z" fill="#FFFFFF"/>
  <path d="M75 15H80V35H75V15Z" fill="#FFFFFF"/>
  <path d="M85 15H90V35H85V15Z" fill="#FFFFFF"/>
  <path d="M95 15H100V35H95V15Z" fill="#FFFFFF"/>
  <path d="M105 15H110V35H105V15Z" fill="#FFFFFF"/>
  <path d="M115 15H120V35H115V15Z" fill="#FFFFFF"/>
  <path d="M125 15H130V35H125V15Z" fill="#FFFFFF"/>
  <path d="M135 15H140V35H135V15Z" fill="#FFFFFF"/>
  <path d="M145 15H150V35H145V15Z" fill="#FFFFFF"/>
  <path d="M155 15H160V35H155V15Z" fill="#FFFFFF"/>
  <path d="M165 15H170V35H165V15Z" fill="#FFFFFF"/>
  <path d="M175 15H180V35H175V15Z" fill="#FFFFFF"/>
  <path d="M185 15H190V35H185V15Z" fill="#FFFFFF"/>
</svg> 